<?xml version="1.0" encoding="UTF-8" standalone="no"?>
<!DOCTYPE svg PUBLIC "-//W3C//DTD SVG 1.1//EN" "http://www.w3.org/Graphics/SVG/1.1/DTD/svg11.dtd">
<svg width="100%" height="100%" viewBox="0 0 4725 4725" version="1.1" xmlns="http://www.w3.org/2000/svg" xmlns:xlink="http://www.w3.org/1999/xlink" xml:space="preserve" xmlns:serif="http://www.serif.com/" style="fill-rule:evenodd;clip-rule:evenodd;stroke-linejoin:round;stroke-miterlimit:2;">
    <g>
        <path d="M3899.2,2063.4C3899.2,1185.6 2551.2,322.2 2377.8,214.7C2369.4,207.3 2365,203.5 2365,203.5L2362.2,199.6L2359.4,203.5C2359.4,203.5 2355,207.3 2346.7,214.7C2173.2,322.2 825.2,1185.6 825.2,2063.4L825.2,4524.8L3899.2,4524.8L3899.2,2063.4Z" style="fill-opacity:0.33;"/>
        <path d="M3899.2,2449.7C3899.2,1709.6 2762.8,981.8 2616.5,891.1C2609.5,884.9 2605.8,881.7 2605.8,881.7L2603.4,878.5L2601.1,881.7C2601.1,881.7 2597.4,884.9 2590.3,891.1C2444.1,981.8 1307.7,1709.6 1307.7,2449.7L1307.7,4524.8L3899.2,4524.8L3899.2,2449.7Z" style="fill-opacity:0.33;"/>
        <path d="M3899.2,2775.4C3899.2,2151.5 2941.2,1537.8 2817.9,1461.4C2811.9,1456.2 2808.8,1453.5 2808.8,1453.5L2806.8,1450.7L2804.8,1453.5C2804.8,1453.5 2801.7,1456.2 2795.8,1461.4C2672.5,1537.8 1714.4,2151.5 1714.4,2775.4L1714.4,4524.8L3899.2,4524.8L3899.2,2775.4Z" style="fill-opacity:0.33;"/>
        <path d="M3899.2,3044.4C3899.2,2518.4 3091.5,2001.1 2987.6,1936.7C2982.6,1932.3 2979.9,1930 2979.9,1930L2978.3,1927.7L2976.6,1930C2976.6,1930 2974,1932.3 2968.9,1936.7C2865,2001.1 2057.3,2518.4 2057.3,3044.4L2057.3,4519.3L3899.2,4519.3L3899.2,3044.4Z" style="fill-opacity:0.33;"/>
        <path d="M3899.2,3281.4C3899.2,2838 3218.3,2401.8 3130.7,2347.6C3126.4,2343.8 3124.2,2341.9 3124.2,2341.9L3122.8,2339.9L3121.4,2341.9C3121.4,2341.9 3119.2,2343.8 3114.9,2347.6C3027.3,2401.8 2346.4,2838 2346.4,3281.4L2346.4,4524.8L3899.2,4524.8L3899.2,3281.4Z" style="fill-opacity:0.33;"/>
    </g>
</svg>
